<svg xmlns="http://www.w3.org/2000/svg" width="151" height="56.148" viewBox="0 0 151 56.148">
  <g id="Group_63" data-name="Group 63" transform="translate(-41 -59)">
    <text id="pet_care_" data-name="pet care " transform="translate(111 98)" fill="#ff4880" font-size="26" font-family="Pacifico-Regular, Pacifico"><tspan x="0" y="0">Pet Care </tspan></text>
    <g id="Layer_x0020_1" transform="translate(41 59.016)">
      <g id="_2607341125936" transform="translate(0 -0.016)">
        <path id="Path_4" data-name="Path 4" d="M279.69,2.849c-.363.693-1.034,1.566-1.5,2.269-.487.729-1,1.6-1.5,2.223-1.4,1.707-2.76,1.405-5.028,2.206,0,5.036.567,4.04-4.075,4.246.43,2.766,2.465,5.749,5.141,6.3.656.135,1.946.107,2.712.184a29.286,29.286,0,0,1,6.988,1.544c.884.392.618,1.162.217,1.924a19.932,19.932,0,0,0-.888,2,21.605,21.605,0,0,0-1.531,9.551,26.085,26.085,0,0,0,1.1,4.526l.795,1.536a14.862,14.862,0,0,0,1.865,2.7c.585.614.4.99.4,2.051q-.005,4.687,0,9.374a14.7,14.7,0,0,0,1.745.627c.748.216,4.91-1.47,5.21-1.7.266-.2-.033.133.213-.225-.8-.231-1.76-5.551,1.368-9.833a8.611,8.611,0,0,1,3.63-2.856c2.584-1.067,7.706-.784,6.8,1.393-.652,1.573-4.024-1.487-7.422,1.348-4.593,3.834-2.6,8.742-2.7,9.323a19.641,19.641,0,0,0,2.6-1.241,49.045,49.045,0,0,0,8.36-5.7,52.392,52.392,0,0,0,4.687-4.687l1.294-1.556a28.743,28.743,0,0,1-1.425-3.061c-.467-.994-1.093-2.008-1.453-2.982-.225-.2-2.057-3.572-2.392-4.106a41.227,41.227,0,0,0-2.651-3.835,13,13,0,0,0-3.416-3.075c-2.308-1.431-2.7-.133-3.057-3.448-2.643.712-6.3.558-7.482-1.394-.747-1.237-.532-2.619-.532-4.213,0-1.45-.1-3.272,0-4.676.1-1.439,2.1-1.765,2.1.466,0,1.6,0,3.208,0,4.812,0,2.147-.4,2.687,1.638,3.171,2.313.549,3.193-.315,4.006-.168.184-.3.017-.071.2-.256a.891.891,0,0,1,.219-.175,4.153,4.153,0,0,0,2.045-2.755c.725-2.556-.06-6.7-1.121-9.093-.585-1.321-1.828-3.277-1.9-3.465A5.981,5.981,0,0,0,291.882.1c-1.934-.543-8.926.881-10.678,1.661a4.729,4.729,0,0,0-1.514,1.083Zm11.851,51.338c.43.109.518-.031.882-.222a3.588,3.588,0,0,0,.8-.4c.1-.582-1.9-5.49,2.7-9.323,3.4-2.836,6.769.225,7.422-1.348.9-2.177-4.22-2.46-6.8-1.393a8.614,8.614,0,0,0-3.63,2.856c-3.128,4.282-2.172,9.6-1.368,9.833Zm4.233-34.315-.271-2c-.813-.147-1.692.717-4.006.168-2.041-.485-1.638-1.025-1.638-3.171,0-1.6.008-3.208,0-4.812,0-2.23-2-1.9-2.1-.466-.1,1.4,0,3.226,0,4.676,0,1.593-.215,2.976.532,4.213,1.179,1.951,4.839,2.106,7.482,1.394Zm-28.194-6.079c4.642-.207,4.075.79,4.075-4.246a31.351,31.351,0,0,0-3.565.86c-.978.393-.829,2.39-.51,3.386Z" transform="translate(-255.729 0.016)" fill="#34485d" fill-rule="evenodd"/>
        <path id="Path_5" data-name="Path 5" d="M39.223,23.639c.068.188,1.311,2.144,1.9,3.465C42.18,29.5,42.965,33.64,42.24,36.2A4.155,4.155,0,0,1,40.2,38.951a.872.872,0,0,0-.219.175c-.185.185-.019-.046-.2.256l.271,2c.357,3.315.749,2.016,3.057,3.448a13,13,0,0,1,3.416,3.075,41.251,41.251,0,0,1,2.651,3.835c.335.534,2.167,3.9,2.392,4.106.514.16.736-.188,1.6-.8a25.544,25.544,0,0,0,4.172-3.764c3.112-3.439,3.36-5.349,4.081-6.345l.12-2.669V42.16a22.619,22.619,0,0,0-.429-5.233c-.589-3.19-2.429-7.449-4.706-9.715a16.232,16.232,0,0,0-3.041-2.607,15.134,15.134,0,0,0-11.894-1.569l-2.236.6ZM.12,44.936c.053.072,1.128,2.316,1.784,3.355,4.531,7.184,13.117,11.393,21.511,12.876.38.067.742.126,1.137.188.951.148.76.18,1.037-.021a26.086,26.086,0,0,1-1.1-4.526,21.6,21.6,0,0,1,1.531-9.551,19.924,19.924,0,0,1,.888-2c.4-.762.666-1.532-.217-1.924A29.274,29.274,0,0,0,19.7,41.79c-.766-.077-2.056-.048-2.712-.184-2.676-.553-4.712-3.536-5.141-6.3-.319-1-.469-2.993.51-3.386a31.352,31.352,0,0,1,3.565-.86c2.268-.8,3.628-.5,5.028-2.206.507-.618,1.017-1.494,1.5-2.223.469-.7,1.141-1.576,1.5-2.269A20.492,20.492,0,0,0,13.73,22.587,14.823,14.823,0,0,0,3.086,29.97a20.726,20.726,0,0,0-1.9,4.108A22.776,22.776,0,0,0,0,41.242v2.4c.024.529.12.667.12,1.295Z" transform="translate(0 -21.494)" fill="#ff4880" fill-rule="evenodd"/>
        <path id="Path_6" data-name="Path 6" d="M54.211,550.7c.36.974.986,1.987,1.453,2.982a28.827,28.827,0,0,0,1.425,3.061c.39-.689,1.562-2.208,2.366-3.557a34.907,34.907,0,0,0,2.039-3.969,32.4,32.4,0,0,0,2.565-9.427c-.721,1-.969,2.906-4.081,6.345a25.563,25.563,0,0,1-4.172,3.764c-.86.614-1.082.962-1.6.8ZM31.294,571.85q0-4.687,0-9.374c0-1.061.189-1.437-.4-2.051a14.885,14.885,0,0,1-1.865-2.7l-.795-1.536c-.278.2-.086.169-1.037.021-.4-.062-.758-.121-1.137-.188-8.393-1.483-16.979-5.692-21.511-12.876-.655-1.039-1.73-3.283-1.784-3.355A30.118,30.118,0,0,0,4.107,546a35.706,35.706,0,0,0,8.609,14.1,6.252,6.252,0,0,0,.851.951,8.9,8.9,0,0,1,1.01.913,6.5,6.5,0,0,0,.486.475c.244.2.287.2.535.427l3.155,2.493c.735.519,1.527,1.039,2.306,1.539a50.6,50.6,0,0,0,10.234,4.95Z" transform="translate(-2.65 -516.348)" fill="#de3f6f" fill-rule="evenodd"/>
      </g>
    </g>
  </g>
</svg>
